<?xml version="1.0" encoding="UTF-8" standalone="no"?>
<!-- Created with Inkscape (http://www.inkscape.org/) -->

<svg
   width="1200"
   height="630"
   viewBox="0 0 317.49996 166.68748"
   version="1.1"
   id="svg1"
   xml:space="preserve"
   inkscape:version="1.4.2 (ebf0e940d0, 2025-05-08)"
   sodipodi:docname="og.svg"
   inkscape:export-filename="og.png"
   inkscape:export-xdpi="96"
   inkscape:export-ydpi="96"
   xmlns:inkscape="http://www.inkscape.org/namespaces/inkscape"
   xmlns:sodipodi="http://sodipodi.sourceforge.net/DTD/sodipodi-0.dtd"
   xmlns="http://www.w3.org/2000/svg"
   xmlns:svg="http://www.w3.org/2000/svg"><sodipodi:namedview
     id="namedview1"
     pagecolor="#ffffff"
     bordercolor="#000000"
     borderopacity="0.25"
     inkscape:showpageshadow="2"
     inkscape:pageopacity="0.0"
     inkscape:pagecheckerboard="0"
     inkscape:deskcolor="#d1d1d1"
     inkscape:document-units="mm"
     showguides="true"
     inkscape:zoom="0.57459766"
     inkscape:cx="725.7252"
     inkscape:cy="375.04504"
     inkscape:window-width="1920"
     inkscape:window-height="1144"
     inkscape:window-x="0"
     inkscape:window-y="0"
     inkscape:window-maximized="0"
     inkscape:current-layer="layer1-0"
     inkscape:export-bgcolor="#ffffffff" /><defs
     id="defs1"><marker
       style="overflow:visible"
       id="marker33"
       refX="0"
       refY="0"
       orient="auto-start-reverse"
       inkscape:stockid="Rounded arrow"
       markerWidth="1"
       markerHeight="1"
       viewBox="0 0 1 1"
       inkscape:isstock="true"
       inkscape:collect="always"
       preserveAspectRatio="xMidYMid"><path
         transform="scale(0.7)"
         d="m -0.21114562,-4.1055728 6.42229122,3.21114561 a 1,1 90 0 1 0,1.78885438 L -0.21114562,4.1055728 A 1.236068,1.236068 31.717474 0 1 -2,3 v -6 a 1.236068,1.236068 148.28253 0 1 1.78885438,-1.1055728 z"
         style="fill:context-stroke;fill-rule:evenodd;stroke:none"
         id="path33" /></marker><marker
       style="overflow:visible"
       id="marker32"
       refX="0"
       refY="0"
       orient="auto-start-reverse"
       inkscape:stockid="Rounded arrow"
       markerWidth="1"
       markerHeight="1"
       viewBox="0 0 1 1"
       inkscape:isstock="true"
       inkscape:collect="always"
       preserveAspectRatio="xMidYMid"><path
         transform="scale(0.7)"
         d="m -0.21114562,-4.1055728 6.42229122,3.21114561 a 1,1 90 0 1 0,1.78885438 L -0.21114562,4.1055728 A 1.236068,1.236068 31.717474 0 1 -2,3 v -6 a 1.236068,1.236068 148.28253 0 1 1.78885438,-1.1055728 z"
         style="fill:context-stroke;fill-rule:evenodd;stroke:none"
         id="path32" /></marker><marker
       style="overflow:visible"
       id="marker31"
       refX="0"
       refY="0"
       orient="auto-start-reverse"
       inkscape:stockid="Rounded arrow"
       markerWidth="1"
       markerHeight="1"
       viewBox="0 0 1 1"
       inkscape:isstock="true"
       inkscape:collect="always"
       preserveAspectRatio="xMidYMid"><path
         transform="scale(0.7)"
         d="m -0.21114562,-4.1055728 6.42229122,3.21114561 a 1,1 90 0 1 0,1.78885438 L -0.21114562,4.1055728 A 1.236068,1.236068 31.717474 0 1 -2,3 v -6 a 1.236068,1.236068 148.28253 0 1 1.78885438,-1.1055728 z"
         style="fill:context-stroke;fill-rule:evenodd;stroke:none"
         id="path31" /></marker><marker
       style="overflow:visible"
       id="ColoredDot"
       refX="-2"
       refY="0"
       orient="auto"
       inkscape:stockid="Colored dot"
       markerWidth="1"
       markerHeight="1"
       viewBox="0 0 1 1"
       inkscape:isstock="true"
       inkscape:collect="always"
       preserveAspectRatio="xMidYMid"><path
         transform="scale(0.45)"
         style="fill:context-fill;fill-rule:evenodd;stroke:context-stroke;stroke-width:2"
         d="M 5,0 C 5,2.76 2.76,5 0,5 -2.76,5 -5,2.76 -5,0 c 0,-2.76 2.3,-5 5,-5 2.76,0 5,2.24 5,5 z"
         sodipodi:nodetypes="sssss"
         id="path20" /></marker><marker
       style="overflow:visible"
       id="RoundedArrow"
       refX="0"
       refY="0"
       orient="auto-start-reverse"
       inkscape:stockid="Rounded arrow"
       markerWidth="1"
       markerHeight="1"
       viewBox="0 0 1 1"
       inkscape:isstock="true"
       inkscape:collect="always"
       preserveAspectRatio="xMidYMid"><path
         transform="scale(0.7)"
         d="m -0.21114562,-4.1055728 6.42229122,3.21114561 a 1,1 90 0 1 0,1.78885438 L -0.21114562,4.1055728 A 1.236068,1.236068 31.717474 0 1 -2,3 v -6 a 1.236068,1.236068 148.28253 0 1 1.78885438,-1.1055728 z"
         style="fill:context-stroke;fill-rule:evenodd;stroke:none"
         id="path8" /></marker></defs><g
     inkscape:label="Right"
     inkscape:groupmode="layer"
     id="layer1" /><g
     inkscape:label="Left"
     inkscape:groupmode="layer"
     id="layer1-0"
     transform="translate(7.80695,93.174035)"><rect
       style="fill:#ffffff;fill-opacity:1;stroke:none;stroke-width:1;stroke-linecap:butt;stroke-dasharray:none;stroke-dashoffset:0;stroke-opacity:1"
       id="rect33"
       width="317.5"
       height="166.6875"
       x="-7.8069501"
       y="-93.174034" /><text
       xml:space="preserve"
       style="font-weight:bold;font-size:41.7639px;font-family:Rubik;-inkscape-font-specification:'Rubik Bold';text-align:start;writing-mode:lr-tb;direction:ltr;text-anchor:start;fill:#000000;fill-opacity:1;stroke:none;stroke-width:1.32487;stroke-linecap:butt;stroke-dasharray:none;stroke-dashoffset:0;stroke-opacity:1"
       x="17.463722"
       y="0.84045011"
       id="text33"><tspan
         sodipodi:role="line"
         id="tspan33"
         style="font-style:normal;font-variant:normal;font-weight:600;font-stretch:normal;font-size:41.764px;font-family:Rubik;-inkscape-font-specification:'Rubik Semi-Bold';fill:#000000;fill-opacity:1;stroke:none;stroke-width:1.32487;stroke-dasharray:none;stroke-opacity:1"
         x="17.463722"
         y="0.84045011">caugi</tspan></text></g><g
     inkscape:label="Top"
     inkscape:groupmode="layer"
     id="layer1-7"
     transform="translate(7.8069501,93.174034)"><g
       id="g33"
       transform="translate(11.39598,1.1928419)"><g
         id="g28"
         transform="translate(125.30347,-76.970365)"><path
           id="path6"
           style="fill:#fee49a"
           d="m 127.66459,94.166245 v 0.308509 0.309025 h 0.30902 0.30851 v -0.309025 -0.308509 h -0.30851 z m 0.61753,0.617534 v 0.926041 0.926559 h 0.30851 0.30902 v 1.852083 1.852598 h 1.23507 1.23507 v -0.30851 -0.309021 h 0.30851 0.30902 v -1.235067 -1.23455 h -0.61753 -0.61754 v -0.617533 -0.617534 h -0.30902 -0.30851 v -0.617533 -0.617533 h -0.92656 z m 12.35015,5.557281 v 2.77916 2.77864 h -0.61753 -0.61754 v 1.8526 1.8526 h 0.61754 0.61753 v 0.30851 0.30903 h -0.30851 -0.30902 v 0.3085 0.30851 h 0.30902 0.30851 v 0.30903 0.30851 h 2.16111 2.16162 v -0.30851 -0.30903 h -0.30902 -0.30851 v -0.61701 -0.61754 h -0.61753 -0.61754 v -0.92656 -0.92604 h 0.61754 0.61753 v -0.30902 -0.30851 h 0.30851 0.30902 v 0.30851 0.30902 h 0.92605 0.92655 v 0.92604 0.92656 h 0.30851 0.30903 v -0.30902 -0.30851 h 0.30851 0.30902 v -0.92656 -0.92604 h -0.61753 -0.61754 v -0.61753 -0.61754 h -1.23506 -1.23507 v -0.30902 -0.30851 h -1.54409 -1.54358 v -2.47013 -2.47014 h -0.3085 z m 0,11.11509 h -0.92604 -0.92656 v -0.92605 -0.92604 h -3.39617 -3.39618 v 0.61754 0.61701 h 1.54358 1.54409 v 0.30903 0.30851 h 1.23455 1.23506 v 0.30902 0.30851 h 0.30903 0.30851 v 0.30902 0.30851 h 1.23506 1.23507 v -0.61753 z m -8.64495,-0.61754 h -0.61753 -0.61754 v 1.54409 1.54358 h 2.47014 2.46961 v -0.92604 -0.92656 h -1.85208 -1.8526 v -0.61753 z m -12.96768,-4.32221 v 0.3085 0.30903 h 0.92604 0.92656 v -0.30903 -0.3085 h -0.92656 z m -1.23507,1.23506 v 1.54358 1.54357 h 3.39617 3.39618 v -0.92604 -0.92604 h -0.61753 -0.61754 v -0.30903 -0.3085 h -0.30851 -0.30902 v -0.30903 -0.30851 h -2.46962 z m 32.11018,0 v 0.61754 0.61753 h -0.61753 -0.61753 v 0.30851 0.30902 h -0.30851 -0.30851 v 0.61754 0.61701 h 0.92604 0.92604 v -0.30851 -0.3085 h 0.30903 0.30851 v 0.3085 0.30851 h 0.30902 0.30851 v -0.92604 -0.92604 h -0.30851 -0.30902 v -0.61753 -0.61754 h -0.30851 z m -1.85208,3.08715 h -1.23507 -1.23506 v 0.30903 0.30851 h 1.23506 1.23507 v -0.30851 z" /><path
           id="path5"
           style="fill:#f39820"
           d="m 117.78457,89.843512 v 0.617533 0.617533 h -1.54409 -1.54358 v 0.308509 0.309025 h -0.92604 -0.92656 v 0.617533 0.617533 h -0.61753 -0.61753 v 0.617534 0.617533 h -0.30851 -0.30903 v 0.617534 0.617533 h -0.30851 -0.30902 v 0.617533 0.617534 h -0.30851 -0.30902 v 0.308508 0.309025 h -0.30851 -0.30903 v 0.617017 0.617533 h 0.30903 0.30851 v 0.926558 0.92604 h -0.61754 -0.61753 v 2.47014 2.47013 h 0.61753 0.61754 v 1.23507 1.23506 h 0.30902 0.30851 v 0.30851 0.30903 h 1.23507 1.23506 v 0.3085 0.30903 h 0.30903 0.30851 v 0.30851 0.30902 h 1.54409 1.54357 v 0.30851 0.30903 h 0.61754 0.61753 v -1.23507 -1.23507 h 1.54357 1.5441 v -0.30902 -0.30851 h -0.92656 -0.92604 v -0.30903 -0.3085 h 0.61753 0.61753 v -0.61754 -0.61753 h 0.30851 0.30903 v 0.61753 0.61754 h 0.92604 0.92604 v 0.3085 0.30903 h 0.30902 0.30851 v 0.30851 0.30902 h 1.23507 1.23507 v 1.8526 1.85209 h 0.92656 0.92604 v 0.30902 0.30851 h 0.30902 0.30851 v 0.30902 0.30851 h 1.23507 1.23506 v -1.54357 -1.54358 h -0.30902 -0.30851 v -0.30902 -0.30851 h -0.30902 -0.30851 v -0.30903 -0.3085 h -0.30903 -0.30851 v 0.3085 0.30903 h -0.61753 -0.61753 v -0.30903 -0.3085 h 0.30902 0.30851 v -0.30903 -0.30851 h -0.30851 -0.30902 v -0.92656 -0.92604 h 0.30902 0.30851 v -0.30902 -0.30851 h 0.30851 0.30902 v -1.23507 -1.23506 h -0.61753 -0.61753 v -0.61754 -0.61753 h -0.61754 -0.61753 v -1.23507 -1.235065 h -0.30851 -0.30902 v -2.161108 -2.161108 h -0.61754 -0.61753 V 93.85722 92.931178 h 0.61753 0.61754 v -0.617533 -0.617533 h 1.8526 1.8526 v 0.308508 0.309025 h 0.30851 0.30902 v 0.308508 0.309025 h 0.30851 0.30902 v 0.617534 0.617533 h 0.30851 0.30903 V 93.85722 93.548712 h 0.30851 0.30902 v 0.308508 0.309025 h 0.61753 0.61754 v 0.308509 0.309025 h 0.30851 0.30902 v 0.926041 0.926559 h 0.61753 0.61754 v -0.309025 -0.308509 h 1.85208 1.8526 v -0.617533 -0.617533 h -0.30851 -0.30902 v -0.309025 -0.308509 h -1.23507 -1.23507 v -0.617533 -0.617534 h -0.3085 -0.30851 v -0.617533 -0.617533 h -1.54409 -1.54358 v -0.309025 -0.308509 h -3.08767 -3.08766 v -0.309025 -0.308508 h -0.30851 -0.30903 v -0.308508 -0.309025 h -3.70468 z m 12.96768,4.322733 h -0.30902 -0.30851 V 93.85722 93.548712 h -0.30902 -0.30851 v -0.309025 -0.308509 h -1.54358 -1.54409 v 1.235067 1.235067 h 0.30903 0.3085 v 1.8526 1.852083 h 0.30903 0.30851 v 1.235065 1.23507 h 0.61753 0.61753 v 0.61753 0.61754 h 0.61754 0.61753 v 1.23506 1.23507 h -0.61753 -0.61754 v 0.92604 0.92656 h 0.61754 0.61753 v 0.61753 0.61754 h 0.30851 0.30902 v 0.3085 0.30903 h 0.30851 0.30903 v 0.30851 0.30902 h 3.7052 3.70468 v 0.92604 0.92605 h 0.30903 0.3085 v -2.46962 -2.47013 h -0.3085 -0.30903 v -0.30903 -0.30851 h -0.92604 -0.92656 v -0.30902 -0.30851 h 0.61753 0.61754 v -0.30903 -0.3085 h 0.61753 0.61753 v 0.61753 0.61753 h 0.61754 0.61753 v -2.77864 -2.77916 h 0.30903 0.3085 v 2.47014 2.47013 h 1.23507 1.23507 v -0.30903 -0.3085 h 0.92604 0.92656 v 0.3085 0.30903 h 0.30851 0.30902 v 0.30851 0.30902 h 0.30851 0.30902 v 0.30851 0.30903 h 0.61754 0.61753 v -0.61754 -0.61753 h -0.61753 -0.61754 v -2.47013 -2.47014 h -0.61753 -0.61753 v -0.617531 -0.617534 h 0.61753 0.61753 v -0.308508 -0.309025 h 0.30851 0.30903 v -0.308508 -0.309025 h -0.30903 -0.30851 v -3.396175 -3.396176 h -1.23506 -1.23507 v 0.308509 0.309025 h -0.30902 -0.30851 v 1.235066 1.235067 h -0.30903 -0.30851 v 0.308509 0.309025 h -0.30902 -0.30851 v 0.926041 0.926559 h 0.92604 0.92656 v 0.926041 0.926042 h -0.30902 -0.30851 v -0.617533 -0.617017 h -0.92656 -0.92604 v -0.309025 -0.308508 h -0.61754 -0.61753 v 0.308508 0.309025 h -0.30851 -0.30902 v -0.309025 -0.308508 h -1.8526 -1.8526 v 0.926041 0.926042 h -1.23455 -1.23507 v -0.617533 -0.617017 h -0.61753 -0.61754 v -0.617533 -0.617534 h -0.30902 -0.30851 v -0.617533 -0.617533 h -0.61753 -0.61754 v -0.309025 z m -7.4104,13.585215 h -0.30851 -0.30902 v 0.30851 0.30903 h 0.30902 0.30851 v -0.30903 z m 0,0.61754 v 0.3085 0.30903 h 0.61754 0.61753 v -0.30903 -0.3085 h -0.61753 z m 4.32274,-14.202755 h 0.30902 0.30851 v 0.308509 0.309025 h 0.92604 0.92656 v 0.617533 0.617533 h 0.30851 0.30902 v 0.617534 0.617533 h 0.61754 0.61753 v 1.23455 1.235067 h -0.30902 -0.30851 v 0.309021 0.30851 h -1.23507 -1.23507 v -1.852598 -1.852083 h -0.30902 -0.30851 V 95.70982 94.783779 h -0.30851 -0.30902 v -0.309025 z m -9.88002,1.8526 h 0.61753 0.61754 v 0.308509 0.309025 h 0.3085 0.30903 v 0.308508 0.309025 h 0.30851 0.30902 v 0.308508 0.308509 h 0.61754 0.61753 v 0.309025 0.308508 h 0.30851 0.30851 v 2.779158 2.77864 h -0.61702 -0.61753 v -2.47013 -2.470135 h -0.30903 -0.30851 v -0.308508 -0.309025 h -0.61753 -0.61753 v -0.617533 -0.617017 h -0.61754 -0.61753 v -0.617533 z m 30.87512,9.262485 v 0.92604 0.92656 h 0.30902 0.30851 v 0.92604 0.92656 h 0.30903 0.3085 v -0.61753 -0.61754 h 0.30903 0.30851 v -0.30902 -0.30851 h -0.30851 -0.30903 v -0.30903 -0.3085 h -0.3085 -0.30903 v -0.61754 -0.61753 h -0.30851 z m -4.32222,1.8526 v 0.30851 0.30902 h 0.30851 0.30902 v -0.30902 -0.30851 h -0.30902 z m -1.23507,0.61753 v 0.30851 0.30903 h 0.30851 0.30903 v -0.30903 -0.30851 h -0.30903 z m -3.08766,1.8526 v 0.30851 0.30903 h 0.30902 0.30851 v -0.30903 -0.30851 h -0.30851 z m 4.32273,0.61754 v 0.3085 0.30851 h 0.30851 0.30902 v -0.30851 -0.3085 h -0.30902 z m 1.23507,0 v 0.3085 0.30851 h 0.30851 0.30902 v -0.30851 -0.3085 h -0.30902 z m 4.32221,0 v 0.3085 0.30851 h -0.92604 -0.92604 v 0.30903 0.30851 h 1.23455 1.23507 v -0.61754 -0.61701 h -0.30851 z m -9.88001,0.61701 v 0.30903 0.30851 h 0.30902 0.30851 v -0.30851 -0.30903 h -0.30851 z" /><path
           id="path4"
           style="fill:#2f1901"
           d="m 117.78457,88.608445 v 0.309025 0.308508 h -0.30903 -0.3085 v 0.309025 0.308509 h -1.23507 -1.23507 v 0.309025 0.308508 h -0.92604 -0.92656 v 0.308508 0.309025 h -0.30851 -0.30902 v 0.308509 0.309025 h -0.30851 -0.30902 v 0.308508 0.309025 h -0.30851 -0.30903 v 0.308508 0.309025 h -0.30851 -0.30902 v 0.926042 0.926559 h -0.30851 -0.30902 v 0.617533 0.617533 h -0.30851 -0.30903 v 0.308509 0.309025 h -0.30851 -0.30902 v 1.543575 1.543575 h -0.30851 -0.30851 v 0.309021 0.30851 h -0.30902 -0.30851 v 2.16163 2.16111 h 0.30851 0.30902 v 0.61753 0.61753 h 0.30851 0.30851 v 0.92604 0.92656 h 0.30902 0.30851 v 0.30851 0.30903 h 0.30903 0.30851 v 0.3085 0.30903 h 0.30902 0.30851 v 0.30851 0.30902 h 1.23507 1.23506 v 0.30851 0.30903 h 0.30903 0.30851 v 0.3085 0.30851 h 2.1611 2.16163 v -0.30851 -0.3085 h -0.61753 -0.61754 v -0.30903 -0.30851 h -1.54357 -1.54409 v -0.30902 -0.30851 h -0.30851 -0.30903 v -0.30903 -0.3085 h -1.23506 -1.23507 v -0.30903 -0.30851 h -0.30851 -0.30902 v -1.23506 -1.23507 h -0.61754 -0.61753 v -2.47013 -2.47014 h 0.61753 0.61754 v -0.92604 -0.926558 h -0.30851 -0.30903 v -0.617533 -0.617017 h 0.30903 0.30851 v -0.309025 -0.308508 h 0.30902 0.30851 v -0.617534 -0.617533 h 0.30902 0.30851 v -0.617533 -0.617534 h 0.30903 0.30851 v -0.617533 -0.617534 h 0.61753 0.61753 v -0.617533 -0.617533 h 0.92656 0.92604 v -0.309025 -0.308509 h 1.54358 1.54409 v -0.617533 -0.617533 h 3.7052 3.70468 v 0.309025 0.308508 h 0.30903 0.30851 v 0.308508 0.309025 h 3.08766 3.08767 v 0.308509 0.309025 h 1.54358 1.54409 v -0.617534 -0.617533 h -1.54409 -1.54358 v -0.308508 -0.309025 h -3.08767 -3.08766 v -0.617534 -0.617533 h -4.01371 z m 17.29042,3.087667 v 0.617533 0.617533 h 0.30851 0.3085 v 0.617534 0.617533 h 1.23507 1.23507 v 0.308509 0.309025 h 0.30902 0.30851 v 0.617533 0.617533 h -1.8526 -1.85208 v 0.308509 0.309025 h -0.61754 -0.61753 V 95.70982 94.783779 h -0.30902 -0.30851 v -0.309025 -0.308509 h -0.61754 -0.61753 V 93.85722 93.548712 h -0.30902 -0.30851 v 0.308508 0.309025 h -0.30903 -0.30851 v 0.308509 0.309025 h 0.61754 0.61753 v 0.617533 0.617533 h 0.30851 0.30902 v 0.617534 0.617533 h 0.61754 0.61753 v 0.617017 0.617533 h 1.23507 1.23455 V 97.56242 96.636379 h 1.8526 1.8526 v 0.308508 0.309025 h 0.30902 0.30851 v -0.309025 -0.308508 h 0.61753 0.61754 v 0.308508 0.309025 h 0.92604 0.92656 v 0.617017 0.617533 h 0.30851 0.30902 V 97.56242 96.636379 h -0.92656 -0.92604 V 95.70982 94.783779 h -1.23507 -1.23506 v -0.617534 -0.617533 h -0.61754 -0.61753 v -0.309025 -0.308509 h -0.92604 -0.92656 v -0.617533 -0.617533 h -0.92604 z m 7.40988,3.087667 h 0.30851 0.30902 v -0.309025 -0.308509 h 0.30851 0.30903 v -1.235067 -1.235066 h -0.61754 -0.61753 v 1.543575 z m 1.23507,-3.087667 h 0.30851 0.30902 v -0.309025 -0.308509 h 1.23507 1.23506 v 3.396176 3.396175 h 0.30851 0.30903 v 0.309025 0.308508 h 0.30851 0.30902 v -4.013708 -4.013709 h -0.61753 -0.61754 v -0.308508 -0.309025 h -1.23506 -1.23507 v 0.309025 0.308508 h -0.30902 -0.30851 v 0.617533 z m 3.7052,6.79235 h -0.30903 -0.30851 v 0.309025 0.308508 h 0.30851 0.30903 v -0.308508 z m -0.61754,0.617533 h -0.61753 -0.61753 v 0.617534 0.617531 h 0.61753 0.61753 v -0.617531 z m 0,1.235065 v 2.47014 2.47013 h 0.61754 0.61753 v 0.61753 0.61754 h -0.61753 -0.61754 v 0.3085 0.30903 h 0.61754 0.61753 v 0.92604 0.92656 h -0.30902 -0.30851 v 0.30851 0.30902 h -0.30903 -0.30851 v -0.92656 -0.92604 h -1.54409 -1.54357 v 0.30851 0.30903 h -0.30903 -0.30851 v 0.61753 0.61753 h 0.61754 0.61753 v 0.30851 0.30903 h 0.30851 0.30902 v 0.61701 0.61754 h -2.16162 -2.16111 v 0.61753 0.61753 h -1.23507 -1.23506 v 0.61754 0.61753 h 2.16162 2.16111 v -0.30851 -0.30902 h 1.23507 1.23506 v -0.30851 -0.30903 h 2.77865 2.77864 v -0.61753 -0.61753 h -2.46962 -2.47013 v -0.61754 -0.61701 h 0.30851 0.30902 v 0.3085 0.30851 h 0.92604 0.92656 v -0.61701 -0.61754 h 0.30851 0.30851 v -0.30902 -0.30851 h 0.30902 0.30851 v -0.92656 -0.92604 h -0.30851 -0.30902 v -0.92656 -0.92604 h 0.30902 0.30851 v -0.30903 -0.3085 h -0.61753 -0.61702 v -2.16111 -2.16163 h -0.61753 z m 2.46962,4.94027 v 0.61753 0.61754 h 0.30903 0.3085 v 0.3085 0.30903 h 0.30903 0.30851 v 0.92604 0.92656 h 0.30902 0.30851 v 0.92604 0.92604 h -0.30851 -0.30902 v 0.30903 0.30851 h 0.61753 0.61753 v -0.30851 -0.30903 h 0.30903 0.30851 v -1.23455 -1.23506 h -0.61754 -0.61753 v -0.92656 -0.92604 h -0.30851 -0.30902 v -0.30903 -0.30851 h -0.30851 -0.30903 v -0.30902 -0.30851 h -0.3085 z m -11.11508,7.40988 v -0.30851 -0.30902 h -0.30851 -0.30903 v -0.30851 -0.30902 h -1.23506 -1.23455 v -0.30851 -0.30903 h -1.54409 -1.54358 v 0.61754 0.61753 h 1.8526 1.85208 v 0.92656 0.92604 h -2.46961 -2.47014 v 0.61753 0.61754 h 2.16111 2.16163 v -0.30851 -0.30903 h 0.61701 0.61754 v -0.30851 -0.30902 h 0.30902 0.30851 v -0.61753 -0.61754 h 0.61753 z m -7.40989,1.23507 v -0.61753 -0.61754 h -1.23506 -1.23507 v -0.30851 -0.30902 h -0.30851 -0.30902 v -0.30851 -0.30902 h -0.92604 -0.92656 v -1.85209 -1.8526 h -1.23507 -1.23507 v 0.30851 0.30903 h 0.61754 0.61753 v 1.23506 1.23455 h -3.39618 -3.39617 v 0.30903 0.30851 h 3.7052 3.70468 v 0.30902 0.30851 h 0.30903 0.30851 v 0.30902 0.30851 h 0.92656 0.92604 v 0.61754 0.61753 h 1.54357 z m -7.4104,-6.17482 v -0.30902 -0.30851 h -0.30851 -0.30902 v -0.30903 -0.3085 h -0.92604 -0.92604 v 0.61753 0.61753 h 1.23455 z m -2.46961,-1.23506 v -0.61754 -0.61753 h -0.30903 -0.30851 v 0.61753 0.61754 h 0.30851 z m 11.11508,4.32221 v -0.61701 -0.61754 h -0.30902 -0.30851 v -0.30902 -0.30851 h -0.30903 -0.30851 v -0.30903 -0.3085 h -0.30902 -0.30851 v -0.61754 -0.61753 h -0.61753 -0.61754 v -0.92656 -0.92604 h -0.30902 -0.30851 v 0.30851 0.30902 h -0.30851 -0.30902 v 0.92604 0.92656 h 0.30902 0.30851 v 0.30851 0.30903 h -0.30851 -0.30902 v 0.3085 0.30903 h 0.61753 0.61753 v -0.30903 -0.3085 h 0.30851 0.30903 v 0.3085 0.30903 h 0.30851 0.30902 v 0.30851 0.30902 h 0.30851 0.30902 v 0.61754 0.61701 h 0.61754 z m -3.08767,-5.55728 h 0.61754 0.61753 v -1.23507 -1.23506 h -0.61753 -0.61754 v 1.23506 z m 0,-2.47013 v -0.61754 -0.61753 h -0.61753 -0.61753 v 0.61753 0.61754 h 0.61753 z m -1.23506,-1.23507 v -1.23507 -1.235065 h -0.30851 -0.30903 v -1.852083 -1.8526 h -0.3085 -0.30903 v -1.235067 -1.235067 h 1.54409 1.54358 v 0.308509 0.309025 h 0.30851 0.30902 v 0.308508 0.309025 h 0.30851 0.30902 v -0.617533 -0.617534 h -0.30902 -0.30851 v -0.309025 -0.308508 h -0.30902 -0.30851 V 92.00462 91.696112 h -1.8526 -1.8526 v 0.617533 0.617533 h -0.61754 -0.61753 v 0.926042 0.926559 h 0.61753 0.61754 v 2.161108 2.161108 h 0.30902 0.30851 v 1.235065 1.23507 h 0.61753 z m -9.88002,-5.557285 v 0.617534 0.617533 h 0.61753 0.61754 v 0.617017 0.617533 h 0.61753 0.61753 v 0.309025 0.308508 h 0.30851 0.30903 v 2.470135 2.47013 h 0.61753 0.61702 v -2.77864 -2.779158 h -0.30851 -0.30851 v -0.308508 -0.309025 h -0.61753 -0.61754 V 97.56242 97.253912 h -0.30902 -0.30851 v -0.309025 -0.308508 h -0.30903 -0.3085 v -0.309025 -0.308509 h -0.61754 z m 20.37757,8.644955 v 0.3085 0.30903 h -0.61754 -0.61753 v 0.30851 0.30902 h 0.92656 0.92604 v 0.30851 0.30903 h 0.30903 0.3085 v -0.92656 -0.92604 h -0.61753 z m 5.5578,0 v 0.3085 0.30903 h 0.30851 0.30902 v 0.30851 0.30902 h 0.92604 0.92656 v -0.30902 -0.30851 h -0.30902 -0.30851 v -0.30903 -0.3085 h -0.92656 z m -4.32274,4.94026 v 0.92604 0.92605 h 0.30903 0.30851 v -0.92605 -0.92604 h -0.30851 z" /></g><g
         id="g27"
         transform="translate(39.659861,-105.6557)"><path
           id="path6-4"
           style="fill:#fee49a"
           d="m 177.68313,34.267617 v 0.926559 0.926041 h -0.92656 -0.92604 v 0.308509 0.309025 h -0.30902 -0.30851 v 0.617533 0.617533 h 0.30851 0.30902 v 0.926042 0.926559 h 0.30851 0.30903 v -0.309026 -0.308508 h 0.3085 0.30903 v 0.308508 0.309026 h 0.61753 0.61702 v -0.617534 -0.617533 h 0.30902 0.30851 v -1.8526 -1.8526 h -0.30851 -0.30902 v -0.308509 -0.309025 h -0.30851 z m -17.90795,0.617534 v 0.309025 0.308508 h 0.30851 0.30902 v 0.617533 0.617534 h -0.30902 -0.30851 v 0.617533 0.617533 h 0.30851 0.30902 v 1.543575 1.544092 h 0.30851 0.30903 v -0.309025 -0.308508 h 0.61753 0.61753 v -0.617533 -0.617534 h 0.30851 0.30903 v -0.309025 -0.308508 h 0.30851 0.30902 v -0.309025 -0.308509 h 0.30851 0.30902 v -0.617533 -0.617533 h -0.30902 -0.30851 v -0.309025 -0.308509 h -0.61753 -0.61754 v -0.617533 -0.617533 h -1.23506 z m 8.64495,4.322733 v 3.087667 3.08715 h -0.61753 -0.61754 v 0.617533 0.617534 h 2.47014 2.47013 v -0.617534 -0.617533 h -0.92656 -0.92604 v -1.543575 -1.543575 h 0.30903 0.3085 v -0.309025 -0.308508 h -0.3085 -0.30903 v -1.235067 -1.235067 h -0.92604 z m 3.7052,7.409884 v 0.617533 0.617534 h -0.30902 -0.30851 v 0.617533 0.617533 h -0.30903 -0.30851 v 0.308509 0.309025 h -0.3085 -0.30903 v 0.308508 0.309025 h 0.92604 0.92656 v -0.617533 -0.617534 h 0.30851 0.30903 v -0.308508 -0.309025 h 0.3085 0.30903 v 0.926042 0.926558 h -0.30903 -0.3085 v 0.308508 0.309025 h -0.30903 -0.30851 v 0.308509 0.309025 h -2.47013 -2.47014 V 50.940501 50.322968 H 166.56753 165.95 v -0.617533 -0.617534 h 0.30902 0.30851 v -0.308508 -0.309025 h 0.30903 0.3085 v 0.926042 0.926558 h 0.92656 0.92604 V 49.39641 48.470368 h -0.3085 -0.30903 V 48.16186 47.852835 h -0.61753 -0.61754 V 47.235301 46.617768 H 166.56753 165.95 v 0.309025 0.308508 h 0.30902 0.30851 v 0.309025 0.308509 H 165.95 165.33246 v 0.309025 0.308508 h -1.54357 -1.54358 v 0.926042 0.926558 h 0.30851 0.30903 v 0.308508 0.309025 h -0.30903 -0.30851 v 0.617534 0.617533 h 0.30851 0.30903 v 0.308508 0.309025 h 0.30851 0.30902 v 0.926042 0.926559 h 0.61753 0.61702 v 0.617533 0.617533 h -0.30851 -0.30851 v 0.308509 0.308508 h 0.30851 0.30851 v 0.309025 0.308508 h 0.30903 0.3085 v 1.544092 1.543575 h 0.61754 0.61753 v 0.926559 0.926041 h 0.30903 0.3085 v 0.926042 0.926558 h 0.61754 0.61753 v 0.308509 0.309025 h 0.61753 0.61754 v 0.926041 0.926559 h 0.30902 0.30851 v 0.308508 0.309025 h 0.30903 0.3085 v -0.617533 -0.617534 h 0.30851 0.30903 v -0.617533 -0.617533 h 0.92604 0.92656 V 63.59916 62.673119 h 0.30851 0.30902 V 62.36461 62.055585 h 0.30851 0.30903 v -0.308508 -0.309025 h 0.3085 0.30903 v -0.308508 -0.309026 h 0.30851 0.30902 v -1.235066 -1.235067 h 0.30851 0.30903 v -0.617533 -0.617534 h 0.3085 0.30903 v -1.543575 -1.543575 h -0.30903 -0.3085 v -0.309025 -0.308508 h -0.30903 -0.30851 v -1.235067 -1.235067 h 0.30851 0.30903 v -0.309025 -0.308508 h 0.3085 0.30903 v -0.309025 -0.308508 h -0.30903 -0.3085 V 49.39641 49.087901 h 0.3085 0.30903 v -0.308508 -0.309025 h -0.30903 -0.3085 V 48.16186 47.852835 h -0.30903 -0.30851 v -0.308509 -0.309025 h -0.61753 -0.61753 v -0.308508 -0.309025 h -1.23507 z m -8.02742,20.995617 v 1.852084 1.8526 h 1.85209 1.8526 v -0.926042 -0.926558 h -0.30851 -0.30903 v -0.926042 -0.926042 h -1.54357 z m 9.26249,0 v 0.308509 0.309025 h -0.61753 -0.61754 v 1.543575 1.543575 h 2.16111 2.16163 v -0.617533 -0.617534 h -0.30903 -0.30851 v -0.926041 -0.926042 h -0.30902 -0.30851 v -0.309025 -0.308509 h -0.92656 z m -13.58522,0.617534 v 0.308508 0.309025 h -0.30902 -0.30851 v 0.308509 0.308508 h -0.61754 -0.61753 v 0.617533 0.617534 h -0.30851 -0.30902 v 0.309025 0.308508 h 1.54357 1.54409 v 0.309025 0.308508 h 0.61754 0.61753 v -1.235066 -1.235067 h -0.30902 -0.30851 v -0.308508 -0.308509 h -0.30903 -0.30851 v -0.309025 -0.308508 h -0.30902 z" /><path
           id="path5-8"
           style="fill:#f39820"
           d="m 159.15765,33.032551 v 3.396175 3.396692 h 0.61753 0.61753 v -0.926559 -0.926042 h -0.30902 -0.30851 v -0.617533 -0.617533 h 0.30851 0.30902 v -0.617534 -0.617533 h -0.30902 -0.30851 v -0.308508 -0.309025 h 1.23507 1.23506 v 0.617533 0.617533 h 0.61754 0.61753 v 0.308509 0.309025 h 0.30851 0.30902 v 0.617533 0.617533 h -0.30902 -0.30851 v 0.308509 0.309025 h -0.30902 -0.30851 v 0.308508 0.309025 h -0.30903 -0.30851 v 0.617534 0.617533 h -0.61753 -0.61753 v 0.308508 0.309025 h -0.30903 -0.30851 v 0.617534 0.617533 h 0.30851 0.30903 v 1.543575 1.543575 h -0.30903 -0.30851 v 0.309025 0.308508 h -0.30902 -0.30851 v 0.926559 0.926042 h 0.30851 0.30902 v 0.309025 0.308508 h 0.30851 0.30903 v 1.543575 1.544092 h -0.30903 -0.30851 V 51.24901 50.940501 h -0.30902 -0.30851 v 1.543575 1.544092 h -0.30902 -0.30851 v 0.617534 0.617533 h -0.61754 -0.61753 v 0.617533 0.617017 h -0.30851 -0.30902 v 0.617533 0.617534 h -0.61754 -0.61753 v 0.309025 0.308508 h -0.30851 -0.30902 v 0.926558 0.926042 h -0.30851 -0.30903 v 1.235067 1.235067 h 0.30903 0.30851 v 0.308508 0.309025 h -0.61754 -0.61753 v 2.470133 2.470134 h 0.61753 0.61754 v 0.308508 0.309025 h -0.30851 -0.30903 v 0.926042 0.926042 h 0.61754 0.61753 v 0.309025 0.308508 h 0.61753 0.61754 v -0.308508 -0.309025 h 0.30902 0.30851 v -0.617534 -0.617533 h 0.61753 0.61754 v -0.308508 -0.308509 h 0.30851 0.30902 v -0.309025 -0.308508 h 0.30851 0.30902 v -0.309025 -0.308509 h 0.61754 0.61753 v -1.544091 -1.543575 h 0.30851 0.30902 v -0.309025 -0.308509 h -0.30902 -0.30851 V 63.59916 63.290652 h -0.30902 -0.30851 v -0.617533 -0.617534 h -0.61754 -0.61753 v -0.308508 -0.309025 h 0.61753 0.61754 v 0.309025 0.308508 h 0.61753 0.61753 v 0.617534 0.617533 h 0.30851 0.30903 v 0.617533 0.617534 h 0.30851 0.30902 v 0.308508 0.309025 h -0.30902 -0.30851 v 1.235067 1.235066 h 0.30851 0.30902 v 0.308509 0.309025 h 0.30851 0.30902 v -0.309025 -0.308509 h 1.54358 1.54357 v 0.926042 0.926042 h 0.30903 0.30851 v 0.926558 0.926042 h 0.30902 0.30851 v -1.235067 -1.23455 h -0.30851 -0.30902 v -0.309025 -0.308508 h 0.30902 0.30851 v -0.309025 -0.308509 h -0.30851 -0.30902 V 67.30436 66.995852 h 0.30902 0.30851 v -0.309025 -0.308508 h -0.30851 -0.30902 v -0.617534 -0.617533 h 0.61753 0.61753 v 1.543575 1.544092 h 0.30903 0.30851 v 0.308508 0.309025 h 0.61753 0.61753 v -0.309025 -0.308508 h 0.30851 0.30903 V 67.30436 66.378319 h 0.30851 0.30902 v 0.926041 0.926559 h 0.61754 0.61753 v -0.309025 -0.308509 h 0.92604 0.92656 v 0.308509 0.309025 h 0.30851 0.30902 v 0.926042 0.926041 h 0.30851 0.30903 v 0.309025 0.308509 h 0.3085 0.30903 v -0.617534 -0.617533 h -0.30903 -0.3085 v -2.778642 -2.778642 h 0.3085 0.30903 v -1.8526 -1.8526 h 0.61753 0.61702 v -4.322217 -4.322733 h -0.61702 -0.61753 v -0.617534 -0.617533 h -0.30903 -0.3085 v 0.308508 0.309025 h -0.30903 -0.30851 v 1.235067 1.235067 h 0.30851 0.30903 v 0.308508 0.309025 h 0.3085 0.30903 v 1.543575 1.543575 h -0.30903 -0.3085 v 0.617534 0.617533 h -0.30903 -0.30851 v 1.235067 1.235066 h -0.30902 -0.30851 v 0.309026 0.308508 h -0.30903 -0.3085 v 0.309025 0.308508 h -0.30903 -0.30851 v 0.309025 0.308509 h -0.30902 -0.30851 v 0.926041 0.926559 h -0.92656 -0.92604 v 0.617533 0.617533 h -0.30903 -0.30851 v 0.617534 0.617533 h -0.3085 -0.30903 v -0.309025 -0.308508 h -0.30851 -0.30902 V 65.45176 64.525719 h -0.61754 -0.61753 v -0.309025 -0.308509 h -0.61753 -0.61754 v -0.926558 -0.926042 h -0.3085 -0.30903 V 61.129544 60.202985 H 165.95 165.33246 V 58.65941 57.115318 h -0.3085 -0.30903 V 56.80681 56.497785 h -0.30851 -0.30851 v -0.308508 -0.308509 h 0.30851 0.30851 v -0.617533 -0.617533 h -0.61702 -0.61753 v -0.926559 -0.926042 h -0.30902 -0.30851 v -0.309025 -0.308508 h -0.30903 -0.30851 v -0.617533 -0.617534 h 0.30851 0.30903 v -0.309025 -0.308508 h -0.30903 -0.30851 V 49.39641 48.470368 h 1.54358 1.54357 V 48.16186 47.852835 h 0.61754 0.61753 V 47.544326 47.235301 H 166.25902 165.95 v -0.308508 -0.309025 h 0.61753 0.61753 v -0.617534 -0.617533 h 0.61754 0.61753 v -3.08715 -3.087667 h 0.92656 0.92604 v 1.235067 1.235067 h 0.30903 0.3085 v 0.308508 0.309025 h -0.3085 -0.30903 v 1.543575 1.543575 h 0.92604 0.92656 v -0.926042 -0.926558 h 0.30851 0.30903 v -0.308508 -0.309025 h 0.61753 0.61753 v 0.309025 0.308508 h 0.30851 0.30903 v 0.926558 0.926042 h -0.30903 -0.30851 v 0.309025 0.308508 h -0.61753 -0.61753 v -0.308508 -0.309025 h -0.30903 -0.30851 v 0.617533 0.617534 h 1.23507 1.23507 v 0.309025 0.308508 h 0.61753 0.61753 v 0.309025 0.308509 h 0.30851 0.30903 v 0.309025 0.308508 h 0.92604 0.92604 v -1.235067 -1.235067 h -0.30851 -0.30851 v -0.308508 -0.309025 h -0.30902 -0.30851 v -1.235067 -1.235066 h 0.61753 0.61702 v -1.543575 -1.543575 h -0.61702 -0.61753 v -0.309026 -0.308508 h -0.30903 -0.3085 v 0.308508 0.309026 h -0.30903 -0.30851 v -0.926559 -0.926042 h -0.30902 -0.30851 v -0.617533 -0.617533 h 0.30851 0.30902 v -0.309025 -0.308509 h 0.92604 0.92656 v -0.926041 -0.926559 h 0.30851 0.30851 v 0.309025 0.308509 h 0.30902 0.30851 v 1.8526 1.8526 h -0.30851 -0.30902 v 0.617533 0.617534 h 0.61753 0.61754 v -3.396692 -3.396175 h -1.54358 -1.54357 v 0.309025 0.308508 h -0.61754 -0.61753 v 0.617533 0.617534 h -0.30903 -0.3085 v 0.617533 0.617533 h -0.61754 -0.61753 v 0.617534 0.617533 h -0.30903 -0.3085 v 0.308508 0.309025 H 169.34669 165.95 v -0.309025 -0.308508 h -0.30851 -0.30903 v -0.309025 -0.308508 h -0.3085 -0.30903 v -0.309025 -0.308509 h -0.30851 -0.30851 v -0.617533 -0.617533 h -0.61753 -0.61753 v -0.617534 -0.617533 h -0.61754 -0.61753 v -0.308508 -0.309025 h -1.23507 z m 3.7052,34.580834 h -0.30903 -0.30851 v 0.308509 0.309025 h -0.30902 -0.30851 v 1.23455 1.235067 h 0.30851 0.30902 v -0.617534 -0.617533 h 0.30851 0.30903 v -0.926042 z m -2.47014,0.617534 v 0.308508 0.309025 h 0.30851 0.30903 v -0.309025 -0.308508 h -0.30903 z m 4.32222,-25.318351 h 0.61753 0.61754 v 0.309025 0.308508 h 0.30902 0.30851 v 0.926558 0.926042 H 166.25902 165.95 v 0.309025 0.308508 h -0.61754 -0.61753 v -0.308508 -0.309025 h -0.30851 -0.30851 v -0.926042 -0.926558 h 0.30851 0.30851 v -0.308508 z m 11.73314,6.175333 v 0.308509 0.309025 h 0.3085 0.30903 V 49.39641 49.087901 h -0.30903 z" /><path
           id="path4-7"
           style="fill:#2f1901"
           d="m 159.15765,31.17995 v 0.617534 0.617533 h -0.61754 -0.61753 v 4.013709 4.014225 h 0.61753 0.61754 v 0.926042 0.926558 h 0.30851 0.30902 v 1.23455 1.235067 h 0.30851 0.30902 v 0.309025 0.308508 h 0.30851 0.30903 v -1.543575 -1.543575 h -0.30903 -0.30851 v -1.235067 -1.235066 h -0.61753 -0.61753 v -3.396692 -3.396175 h 1.23506 1.23507 v 0.309025 0.308508 h 0.61753 0.61754 v -0.617533 -0.617534 h -0.30903 -0.30851 V 31.797484 31.17995 h -1.54409 z m 3.7052,2.470134 v 0.617533 0.617534 h 0.61753 0.61753 v 0.617533 0.617533 h 0.30851 0.30851 v 0.308509 0.309025 h 0.30903 0.3085 v 0.308508 0.309025 h 0.30903 0.30851 v 0.308508 0.309025 h 3.39669 3.39618 v -0.309025 -0.308508 h 0.3085 0.30903 v -0.617533 -0.617534 h -0.30903 -0.3085 v 0.308509 0.309025 H 169.34669 165.95 v -0.309025 -0.308509 h -0.30851 -0.30903 v -0.308508 -0.309025 h -0.3085 -0.30903 v -0.617533 -0.617534 h -0.30851 -0.30851 v -0.308508 -0.309025 h -0.61753 z m 10.49755,2.470133 h 0.61753 0.61754 v -0.617533 -0.617533 h -0.61754 -0.61753 v 0.617533 z m 1.23507,-1.235066 h 0.3085 0.30903 v -0.617534 -0.617533 h -0.30903 -0.3085 v 0.617533 z m 0.61753,-1.235067 h 0.61753 0.61754 v -0.308508 -0.309025 h 1.54357 1.54358 v 3.396175 3.396692 h 0.61753 0.61753 v -3.705201 -3.7052 h -0.61753 -0.61753 V 31.797484 31.17995 h -1.54358 -1.54357 v 0.617534 0.617533 h -0.61754 -0.61753 v 0.617534 z m 4.32222,6.175334 h -0.61754 -0.61753 v 1.235066 1.235067 h 0.61753 0.61754 v -1.235067 z m -19.14251,5.557283 h -0.61753 -0.61753 v 1.8526 1.8526 h 0.30851 0.30902 v 0.926042 0.926558 h 0.30851 0.30902 v 0.308509 0.309025 h 0.30851 0.30903 v -1.544092 -1.543575 h -0.30903 -0.30851 V 48.16186 47.852835 h -0.30902 -0.30851 v -0.926042 -0.926559 h 0.30851 0.30902 v -0.308508 z m -0.61753,5.5578 h -0.30902 -0.30851 v 0.617534 0.617533 h -0.30903 -0.30851 v 0.308508 0.309025 h -0.30902 -0.30851 v 1.235067 1.235067 h 0.61753 0.61754 v -0.617533 -0.617534 h 0.30851 0.30902 v -1.544092 z m -1.8526,4.322734 h -0.61753 -0.61754 v 0.308508 0.309025 h -0.3085 -0.30903 v 0.926042 0.926042 h 0.61753 0.61754 v -0.617534 -0.617533 h 0.30902 0.30851 v -0.617017 z m -1.8526,2.469617 h -0.61753 -0.61754 v 0.926558 0.926042 h -0.3085 -0.30903 v 0.309025 0.308508 h -0.30851 -0.30902 v 2.161625 2.161109 h -0.30851 -0.30903 v 2.161108 2.161625 h 0.30903 0.30851 v 0.926042 0.926042 h 0.30902 0.30851 v 0.309025 0.308508 h 0.61753 0.61754 v 0.617533 0.617534 h 3.39617 3.39669 v -0.617534 -0.617533 h 0.61754 0.61753 v 0.309025 0.308508 h 0.61753 0.61702 v 0.309025 0.308509 h 1.8526 1.8526 v -0.308509 -0.309025 h 0.30903 0.3085 v -1.235066 -1.235067 h 1.23507 1.23507 v 0.926558 0.926042 h 0.30851 0.30902 v -2.469617 -2.470133 h -0.30902 -0.30851 v 0.926041 0.926559 h -0.30903 -0.30851 v 0.308508 0.309025 h -0.61753 -0.61753 v -0.309025 -0.308508 h -0.30851 -0.30903 v -1.544092 -1.543575 h -0.61753 -0.61753 v 0.617533 0.617534 h 0.30902 0.30851 v 0.308508 0.309025 h -0.30851 -0.30902 v 0.308508 0.309025 h 0.30902 0.30851 v 0.308509 0.309025 h -0.30851 -0.30902 v 0.308508 0.309025 h 0.30902 0.30851 v 1.23455 1.235067 h -2.16111 -2.16111 v -1.543575 -1.543575 h -0.30902 -0.30851 v -0.309025 -0.308509 h -0.30902 -0.30851 v 0.926042 0.926042 h -0.30903 -0.30851 v 0.617533 0.617534 h -0.30902 -0.30851 v 0.617533 0.617533 h -0.61753 -0.61754 v -0.308508 -0.309025 h -2.16162 -2.16111 v -0.308508 -0.309025 h -0.61753 -0.61754 v -0.926042 -0.926042 h 0.30903 0.30851 v -0.309025 -0.308508 h -0.61754 -0.61753 v -2.470134 -2.470133 h 0.61753 0.61754 v -0.309025 -0.308508 h -0.30851 -0.30903 v -1.235067 -1.235067 h 0.30903 0.30851 v -0.926042 -0.926558 h 0.30902 0.30851 v -0.308508 z m 6.79287,9.880533 v -1.235066 -1.235067 h 0.30851 0.30902 v -0.309025 -0.308508 h -0.30902 -0.30851 v -0.617534 -0.617533 h -0.30903 -0.30851 v -0.617533 -0.617534 h -0.61753 -0.61753 v 0.617534 0.617533 h 0.30851 0.30902 v 0.308508 0.309025 h 0.30851 0.30902 v 0.308509 0.309025 h -0.30902 -0.30851 v 1.543575 1.544091 h -0.61753 -0.61754 v 0.308509 0.309025 h 0.30851 0.30903 v 0.617533 0.617017 h 0.30851 0.30902 v -0.617017 -0.617533 h 0.30851 0.30902 v -0.309025 -0.308509 h 0.30851 z m -1.8526,-5.5578 v -0.308508 -0.309025 h -0.61754 -0.61753 v 0.309025 0.308508 h 0.61753 z m 11.11508,9.262484 v 0.309025 0.308508 h 0.30851 0.30903 v 0.309025 0.308509 h 2.1611 2.16163 v -0.926042 -0.926558 h -0.30903 -0.3085 v 0.309025 0.308508 h -2.16163 z m 4.94027,-0.617533 h 0.30851 0.30902 v -0.617534 -0.617533 h -0.30902 -0.30851 v 0.617533 z m 0,-1.235067 v -1.23455 -1.235067 h 0.30851 0.30902 v -0.926558 -0.926042 h -0.30902 -0.30851 v -0.309025 -0.308508 h 0.61753 0.61702 V 62.36461 60.202985 h -0.61702 -0.61753 v 1.8526 1.8526 h -0.30903 -0.3085 v 2.778642 2.778642 h 0.3085 z m 1.23455,-9.262484 h 0.61753 0.61754 v -4.322217 -4.322733 h -0.61754 -0.61753 v 4.322733 z m 0,-8.64495 v -1.235067 -1.235067 h 0.61753 0.61754 v -1.8526 -1.8526 h -0.61754 -0.61753 v -1.235067 -1.235066 h -0.61702 -0.61753 v 1.235066 1.235067 h 0.30851 0.30902 v 0.309025 0.308508 h 0.30851 0.30851 v 1.235067 1.235067 h -0.61702 -0.61753 v 1.543575 1.544092 h 0.61753 z m -13.58522,-8.645467 v 0.309025 0.308508 h -0.30851 -0.30851 v 0.926558 0.926042 h 0.30851 0.30851 v 0.309025 0.308508 h 0.61753 0.61754 v -0.308508 -0.309025 h 0.30902 0.30851 V 44.456659 43.530101 H 166.25902 165.95 v -0.308508 -0.309025 h -0.61754 z m 8.02794,0 v 0.309025 0.308508 h -0.30903 -0.30851 v 0.926558 0.926042 h 0.30851 0.30903 v 0.309025 0.308508 h 0.61753 0.61753 v -0.308508 -0.309025 h 0.30851 0.30903 v -0.926042 -0.926558 h -0.30903 -0.30851 v -0.308508 -0.309025 h -0.61753 z m -5.55781,3.7052 v 0.617533 0.617534 h 0.61754 0.61753 v 0.309025 0.308508 h 0.30903 0.3085 v 0.926042 0.926558 h -0.92604 -0.92656 v 0.617533 0.617534 h 2.47014 2.47013 V 51.24901 50.940501 h 0.30851 0.30903 v -0.309025 -0.308508 h 0.3085 0.30903 V 49.39641 48.470368 h -0.30903 -0.3085 v 0.309025 0.308508 h -0.30903 -0.30851 v 0.617534 0.617533 h -0.92656 -0.92604 v -0.309025 -0.308508 h 0.30903 0.3085 V 49.39641 49.087901 h 0.30851 0.30903 v -0.617533 -0.617533 h 0.30851 0.30902 v -0.617534 -0.617533 h -2.47013 z m 0,3.7052 V 49.39641 48.470368 h -0.3085 -0.30903 v 0.309025 0.308508 H 166.25902 165.95 v 0.617534 0.617533 h 0.61753 z" /></g><path
         style="fill:none;fill-opacity:0.42196;stroke:#000000;stroke-width:1.5;stroke-linecap:round;stroke-dasharray:none;stroke-dashoffset:0;stroke-opacity:1;marker-start:url(#RoundedArrow);marker-end:url(#marker32)"
         d="m 157.29854,-10.473885 c 0,0 -5.85654,-24.361684 20.71042,-34.80925"
         id="path28"
         sodipodi:nodetypes="cc" /><path
         style="fill:none;fill-opacity:0.42196;stroke:#000000;stroke-width:1.5;stroke-linecap:round;stroke-dasharray:none;stroke-dashoffset:0;stroke-opacity:1;marker-start:url(#marker33)"
         d="m 189.49189,46.918867 c 0,0 23.55505,13.951675 46.60308,-5.902508"
         id="path29"
         sodipodi:nodetypes="cc" /><path
         style="fill:none;fill-opacity:0.42196;stroke:#000000;stroke-width:1.5;stroke-linecap:butt;stroke-dasharray:none;stroke-dashoffset:0;stroke-opacity:1;marker-start:url(#marker31);marker-end:url(#ColoredDot)"
         d="m 235.8215,-46.991285 c 0,0 24.32044,11.028868 21.67654,41.9048506"
         id="path30"
         sodipodi:nodetypes="cc" /><g
         id="g26"
         transform="translate(-47.80415,-82.103121)"><path
           id="path6-7"
           style="fill:#fee49a"
           d="m 194.35549,88.608747 v 0.308508 0.309026 h -0.30851 -0.30902 v 0.308508 0.308508 h -0.30851 -0.30902 v 0.309025 0.308509 h 0.30902 0.30851 v 0.309025 0.308508 h 0.61753 0.61754 v 0.617533 0.617534 h 1.23506 1.23507 v -0.308509 -0.309025 h 0.30903 0.3085 v -0.617533 -0.617533 h -0.3085 -0.30903 v -0.926042 -0.926042 h -1.54358 z m 29.64057,2.469617 v 0.309025 0.308508 h -0.30851 -0.30902 v 0.617534 0.617533 h -0.30851 -0.30903 v 0.309025 0.308508 h 0.30903 0.30851 v 0.309025 0.308509 h -0.30851 -0.30903 v 0.309025 0.308508 h 0.30903 0.30851 v 0.617533 0.617534 h 1.54357 1.54409 v -0.308508 -0.309026 h 0.30851 0.30903 v -0.617533 -0.617533 h -0.30903 -0.30851 v -0.308509 -0.309025 h -0.92655 -0.92605 v -0.308508 -0.309025 h 0.30851 0.30903 v -0.617533 -0.617534 h 0.30851 0.30902 v -0.308508 -0.309025 h -0.92656 z m -14.20275,2.470133 v 0.309025 0.308509 h -1.23507 -1.23506 v 0.309025 0.308508 h -0.92604 -0.92656 v 0.309025 0.308508 h -0.30851 -0.30903 v -0.308508 -0.309025 h -1.23455 -1.23506 v 0.309025 0.308508 h -0.61754 -0.61753 v 0.309026 0.308508 h -0.61753 -0.61754 v 0.308508 0.309025 h -0.30902 -0.30851 v -0.309025 -0.308508 h -0.61753 -0.61754 v 0.617533 0.617534 h -0.61753 -0.61753 v 0.617533 0.617533 h -0.30851 -0.30903 v 0.308509 0.309025 h -0.30851 -0.30902 v 0.308508 0.309025 h -0.30851 -0.30902 v 1.852599 1.85208 h 0.61753 0.61753 v -0.3085 -0.30851 h 0.61754 0.61753 v -0.30903 -0.30851 h 0.61753 0.61754 v 0.30851 0.30903 h 0.61753 0.61753 v 0.61701 0.61754 h 0.30851 0.30903 v 0.30902 0.30851 h 1.8526 1.8526 v -0.30851 -0.30902 h 0.30851 0.3085 v -0.92604 -0.92605 h 0.30903 0.30851 v -0.30902 -0.30851 h -0.61754 -0.61701 v -1.23507 -1.235062 h 0.61701 0.61754 v -0.617534 -0.617533 h 0.61753 0.61753 v -0.309025 -0.308508 h 1.23507 1.23507 v 0.308508 0.309025 h 0.92656 0.92604 v 0.617533 0.617534 h 0.61753 0.61753 v 1.235062 1.23507 h 0.30851 0.30903 v 0.30851 0.30902 h 0.92604 0.92656 v 0.30851 0.30903 h -0.61754 -0.61753 v 0.61701 0.61754 h -0.30902 -0.30851 v 0.61753 0.61753 h -0.30903 -0.30851 v 0.61754 0.61753 h -0.30902 -0.30851 v 0.61753 0.61754 h -0.30851 -0.30902 v 1.54409 1.54357 h 0.61753 0.61753 v 0.30851 0.30903 h 0.30851 0.30903 v 0.30851 0.30902 h 0.92604 0.92656 v 0.30851 0.30902 h 0.30851 0.30902 v 0.30851 0.30903 h -0.30902 -0.30851 v 0.30851 0.30902 h 0.61753 0.61753 v -0.30902 -0.30851 h 0.61754 0.61753 v -0.30903 -0.30851 h 0.92604 0.92604 v 0.61754 0.61753 h 1.23507 1.23507 v -0.30902 -0.30851 h 0.30902 0.30851 v -0.92656 -0.92604 h 0.30903 0.3085 v -0.30903 -0.30851 h 0.30903 0.30851 v -0.61753 -0.61753 h -0.61754 -0.61753 v -0.30851 -0.30903 h -0.30851 -0.30902 v -0.3085 -0.30903 h -1.23507 -1.23507 v 0.61753 0.61754 h -0.3085 -0.30903 v -0.61754 -0.61753 h 0.30903 0.3085 v -0.30851 -0.30902 h 0.30903 0.30851 v -0.30851 -0.30903 h 0.30902 0.30851 v -0.3085 -0.30903 h 0.61753 0.61754 v -0.61753 -0.61754 h 1.54409 1.54357 v 0.61754 0.61753 h 1.54358 1.54409 v 0.92656 0.92604 h -0.30902 -0.30851 v -0.30851 -0.30902 h -1.23507 -1.23507 v 0.92656 0.92604 h 0.61754 0.61753 v 0.30851 0.30902 h 0.30851 0.30902 v 0.30851 0.30902 h 0.30851 0.30903 v 0.92605 0.92655 h -0.30903 -0.30851 v 0.30851 0.30903 h -0.30902 -0.30851 v 0.30851 0.30902 h 0.61753 0.61754 v -0.30902 -0.30851 h 0.30851 0.30902 v -0.61754 -0.61753 h 0.30851 0.30902 v -0.61753 -0.61754 h 0.30851 0.30903 v -0.30902 -0.30851 h 0.30851 0.30902 v -0.30902 -0.30851 h -0.30902 -0.30851 v -0.30851 -0.30903 h 0.30851 0.30902 v -1.23506 -1.23507 h 0.30851 0.30902 v -0.30851 -0.30902 h -0.61753 -0.61753 v -0.30851 -0.30903 h -0.30903 -0.30851 v -0.3085 -0.30903 h -0.30902 -0.30851 v -0.30851 -0.30902 h -0.30902 -0.30851 v -0.30851 -0.30903 h -0.30903 -0.30851 v -0.3085 -0.30851 h -3.08766 -3.08767 v -0.30903 -0.30851 h 0.61753 0.61754 v -0.30902 -0.30851 h 0.30902 0.30851 v -0.61753 -0.61754 h -0.61753 -0.61754 v -0.30902 -0.308509 h -0.3085 -0.30903 v -0.617533 -0.617534 h -0.30851 -0.30902 v -0.309025 -0.308508 h -0.30851 -0.30903 v -0.309025 -0.308508 h -0.3085 -0.30903 v -0.617534 -0.617533 h -1.54357 -1.54358 v -0.617534 -0.617533 h -0.92656 -0.92604 v -0.308508 -0.309025 h -1.23507 -1.23506 v -0.308509 -0.309025 h -0.61754 z m 9.88002,4.322734 h 0.30902 0.30851 v -0.309025 -0.308508 h -0.30851 -0.30902 v 0.308508 z m 6.17533,16.055349 h -1.23507 -1.23506 v 0.30851 0.30903 h 0.30902 0.30851 v 0.61753 0.61753 h 0.61753 0.61754 v -0.61753 -0.61753 h 0.30851 0.30902 v -0.30903 z m -3.7052,-0.61753 v 0.30851 0.30902 h 0.30903 0.3085 v -0.30902 -0.30851 h -0.3085 z m -16.67288,-11.73262 h 0.92656 0.92604 v 0.61753 0.61754 h 0.30902 0.30851 v -0.30903 -0.30851 h 0.30903 0.3085 v -0.30902 -0.30851 h 0.30903 0.30851 v -1.23507 -1.235062 h 0.30902 0.30851 v -0.309025 -0.308509 h -1.54357 -1.5441 v 0.308509 0.309025 h -0.3085 -0.30903 v 0.617533 0.617529 h -0.30851 -0.30902 v 0.61754 z m -19.1425,-3.087666 v 0.308509 0.309025 h -0.30903 -0.30851 v 1.235062 1.23507 h 0.30851 0.30903 v 0.61753 0.61754 h 0.3085 0.30903 v 0.30851 0.3085 h 0.30851 0.30902 v -0.3085 -0.30851 h 0.92604 0.92656 v -1.8526 -1.852602 h -0.30902 -0.30851 v -0.309025 -0.308509 h -1.23507 z m 23.46523,1.235067 v 0.308509 0.30902 h 0.30903 0.3085 v -0.30902 -0.308509 h -0.3085 z m 8.02793,10.497549 h 0.30851 0.30851 v 0.30851 0.30902 h -0.30851 -0.30851 v -0.30902 z m 15.4373,1.8526 v 0.92604 0.92656 h -0.61753 -0.61753 v 0.92604 0.92656 h 0.92656 0.92604 v 0.61754 0.61701 h 0.92656 0.92604 v 0.30903 0.30851 h 0.61753 0.61754 v -0.61754 -0.61701 h 0.30902 0.30851 v -0.30903 -0.30851 h -0.30851 -0.30902 v -0.30902 -0.30851 h -0.30851 -0.30903 v -0.61753 -0.61754 h -0.30851 -0.30902 v -0.61753 -0.61754 h -0.30851 -0.30902 v -0.30902 -0.30851 h -0.92605 z m -20.37756,6.79235 v 0.30903 0.30851 h -0.30903 -0.30851 v 0.61753 0.61753 h 0.30851 0.30903 v 0.30903 0.30851 h -0.30903 -0.30851 v 0.92655 0.92605 h 0.30851 0.30903 v 0.61753 0.61753 h 0.30851 0.30902 v -0.30902 -0.30851 h 0.30851 0.30902 v 0.30851 0.30902 h 0.30851 0.30903 v -0.30902 -0.30851 h 0.30851 0.30902 v -0.61753 -0.61754 h 0.30851 0.30902 v -0.30851 -0.30902 h 0.30851 0.30903 v -0.30851 -0.30902 h 0.30851 0.30902 v -0.61754 -0.61753 h -0.61753 -0.61754 v -0.30851 -0.30902 h -0.30902 -0.30851 v 0.30902 0.30851 h -0.92656 -0.92604 v -0.61753 -0.61754 h -0.30902 z" /><path
           id="path5-6"
           style="fill:#f39820"
           d="m 193.73796,88.608747 v 0.308508 0.309026 h 0.30902 0.30851 v -0.309026 -0.308508 h -0.30851 z m 0,0.617534 h -0.30851 -0.30902 v 0.308508 0.308508 h 0.30902 0.30851 v -0.308508 z m 3.7052,-0.617534 v 0.926042 0.926042 h 0.30903 0.3085 v 0.617533 0.617533 h -0.3085 -0.30903 v 0.309025 0.308509 h -1.23507 -1.23506 v 0.309025 0.308508 h 0.30902 0.30851 v 0.309025 0.308508 h 0.30902 0.30851 v 0.309025 0.308509 h -0.61753 -0.61753 v 0.309025 0.308508 h -0.61754 -0.61753 v 0.617533 0.617534 h -0.30851 -0.30902 v 2.778642 2.779157 h -0.92605 -0.92604 v 0.30851 0.30902 h -0.30902 -0.30851 v 0.30851 0.30903 h -0.30903 -0.3085 v -0.30903 -0.30851 h 0.3085 0.30903 v -0.92655 -0.92605 h -0.61753 -0.61754 v 1.23507 1.23507 h -0.92656 -0.92604 v 0.30851 0.3085 h -0.30902 -0.30851 v -0.3085 -0.30851 h -0.30903 -0.3085 v 1.23455 1.23506 h 0.61753 0.61753 v 0.61754 0.61753 h 0.30851 0.30903 v 0.30903 0.3085 h 0.3085 0.30903 v 0.61754 0.61753 h 0.30851 0.30902 v 0.30903 0.3085 h 0.30851 0.30903 v 0.30903 0.30851 h 0.3085 0.30903 v 0.61753 0.61753 h 0.61753 0.61702 v 0.30851 0.30903 h 0.92656 0.92604 v 0.30851 0.30902 h 0.30902 0.30851 v 0.30851 0.30902 h 1.54409 1.54358 v 0.61754 0.61753 h 0.61753 0.61754 v 0.30851 0.30903 h 4.32273 4.32222 v 0.3085 0.30903 h 0.30902 0.30851 v 0.30851 0.30902 h 1.23507 1.23506 v -0.92656 -0.92604 h -0.3085 -0.30903 v -1.23507 -1.23506 h 0.61753 0.61754 v 1.54357 1.5441 h 0.61753 0.61753 v 0.92604 0.92656 h 0.30851 0.30903 v 0.61701 0.61754 h -0.92656 -0.92604 v 3.7052 3.7052 h 0.30902 0.30851 v 0.3085 0.30903 h 1.54358 1.54409 v -0.30903 -0.3085 h 0.61753 0.61753 v -0.61754 -0.61753 h 0.61754 0.61753 v -0.61753 -0.61754 h 0.30851 0.30902 v -0.30851 -0.30902 h 0.30851 0.30851 v -0.30851 -0.30902 h 0.30903 0.3085 v -0.61754 -0.61753 h 0.61754 0.61753 v -0.61753 -0.61754 h 2.16163 2.1611 v -0.61753 -0.61753 h 1.54358 1.54409 v -0.30851 -0.30903 h 0.92604 0.92656 v -0.61701 -0.61754 h 0.61753 0.61754 v -0.30902 -0.30851 h 0.30851 0.30902 v -0.30903 -0.3085 h 0.30851 0.30851 v -0.30903 -0.30851 h 0.61753 0.61753 v -0.92656 -0.92604 h 0.92656 0.92605 v 0.30851 0.30902 h 0.30902 0.30851 v 0.61754 0.61753 h 0.30902 0.30851 v 0.61754 0.61753 h 0.30903 0.30851 v 0.30851 0.30902 h 0.30902 0.30851 v 0.30851 0.30903 h -0.30851 -0.30902 v 0.61701 0.61754 h -0.61754 -0.61753 v -0.30851 -0.30903 h -0.61753 -0.61754 v 0.30903 0.30851 h 0.30903 0.30851 v 0.30902 0.30851 h 1.23506 1.23507 v -0.30851 -0.30902 h 0.30902 0.30851 v -1.23455 -1.23507 h -0.30851 -0.30902 v -0.30903 -0.3085 h -0.30851 -0.30902 v -0.92656 -0.92605 h -0.30851 -0.30903 v -0.92655 -0.92605 h -1.8526 -1.8526 v 0.92605 0.92655 h -0.30851 -0.30902 v -2.77915 -2.77865 h -0.30851 -0.30851 v -0.92604 -0.92656 h -0.30902 -0.30851 v 0.30903 0.30851 h -0.30903 -0.30851 v 0.30902 0.30851 h -0.30902 -0.30851 v 1.23507 1.23506 h -0.30902 -0.30851 v 0.30903 0.30851 h 0.30851 0.30902 v 0.30851 0.30902 h -0.30902 -0.30851 v 0.30851 0.30902 h -0.30903 -0.30851 v 0.61754 0.61753 h -0.30902 -0.30851 v 0.61753 0.61754 h 0.30851 0.30902 v -0.30903 -0.30851 h 0.30851 0.30903 v -0.30902 -0.30851 h 0.30851 0.30902 v -0.30902 -0.30851 h 0.30851 0.30902 v 1.23506 1.23507 h -1.23506 -1.23507 v -0.30902 -0.30851 h -0.30902 -0.30851 v 0.30851 0.30902 h -0.61754 -0.61753 v 0.30851 0.30903 h -0.30902 -0.30851 v 0.61753 0.61753 h -0.61754 -0.61753 v -0.61753 -0.61753 h -0.30851 -0.30902 v -0.61754 -0.61753 h -0.30851 -0.30903 v 0.30851 0.30902 h -0.3085 -0.30903 v -0.30902 -0.30851 h -0.30851 -0.30902 v 0.30851 0.30902 h -1.23507 -1.23507 v 0.30851 0.30903 h 1.23507 1.23507 v 0.3085 0.30903 h -0.30851 -0.30903 v 0.30851 0.30902 h -1.23506 -1.23507 v -0.30902 -0.30851 h -0.30851 -0.30851 v -0.61753 -0.61754 h 0.61702 0.61753 v -0.61753 -0.61754 h -0.92604 -0.92604 v 0.30851 0.30903 h -0.61753 -0.61754 v 0.30851 0.30902 h -0.61753 -0.61753 v -0.30902 -0.30851 h 0.30851 0.30902 v -0.30903 -0.30851 h -0.30902 -0.30851 v -0.30902 -0.30851 h -0.92656 -0.92604 v -0.30902 -0.30851 h -0.30903 -0.30851 v -0.30903 -0.30851 h -0.61753 -0.61753 v -1.54357 -1.54409 h 0.30902 0.30851 v -0.61754 -0.61753 h 0.30851 0.30902 v -0.61753 -0.61754 h 0.30851 0.30903 v -0.61753 -0.61753 h 0.30851 0.30902 v -0.61754 -0.61701 h 0.61753 0.61754 v -0.30903 -0.30851 h -0.92656 -0.92604 v 0.30851 0.30903 h -0.30903 -0.30851 v -0.61754 -0.61753 h -0.61753 -0.61753 v -1.23507 -1.235062 h -0.92604 -0.92656 v 1.235062 1.23507 h -0.30851 -0.30903 v 0.30851 0.30902 h -0.3085 -0.30903 v 0.30851 0.30903 h -0.30851 -0.30902 v 0.30851 0.3085 h 0.30902 0.30851 v 0.92656 0.92604 h 0.30903 0.3085 v 0.61754 0.61753 h 0.30903 0.30851 v 1.23507 1.23506 h -0.30851 -0.30903 v -0.92604 -0.92656 h -0.3085 -0.30903 v -0.61753 -0.61753 h -0.61753 -0.61754 v -1.54358 -1.54357 h -0.61753 -0.61753 v -0.30903 -0.30851 h -0.30851 -0.30903 v 0.92605 0.92604 h -0.3085 -0.30851 v 0.30902 0.30851 h -1.8526 -1.8526 v -0.30851 -0.30902 h -0.30903 -0.30851 v -0.61754 -0.61701 h -0.61753 -0.61753 v -0.30903 -0.30851 h -0.61754 -0.61753 v 0.30851 0.30903 h -0.61753 -0.61754 v 0.30851 0.3085 h -0.61753 -0.61753 v -1.85208 -1.852599 h 0.30902 0.30851 v -0.309025 -0.308508 h 0.30902 0.30851 v -0.309025 -0.308509 h 0.30903 0.30851 v -0.617533 -0.617533 h 0.61753 0.61753 v -0.617534 -0.617533 h 0.61754 0.61753 v 0.308508 0.309025 h 0.30851 0.30902 v -0.309025 -0.308508 h 0.61754 0.61753 v -0.308508 -0.309026 h -0.61753 -0.61754 v -1.235066 -1.235067 h -0.30902 -0.30851 v -0.308508 -0.309025 h -0.30902 -0.30851 v -1.235067 -1.235067 h -0.30903 -0.30851 v -0.617016 -0.617534 h -0.3085 z m 24.7003,24.700303 h 0.30903 0.3085 v -0.30903 -0.30851 h -0.3085 -0.30903 v 0.30851 z M 194.35549,91.078364 v 0.309025 0.308508 h 0.30903 0.30851 v -0.308508 -0.309025 h -0.30851 z m 29.02304,0 v 0.309025 0.308508 h 0.30902 0.30851 v -0.308508 -0.309025 h -0.30851 z m -15.43782,1.8526 v 0.617533 0.617534 h 0.92656 0.92604 v -0.308509 -0.309025 h 0.61753 0.61754 v 0.309025 0.308509 h 1.23506 1.23507 v 0.309025 0.308508 h 0.92604 0.92656 v -0.308508 -0.309025 h -0.30902 -0.30851 v -0.308509 -0.309025 h -0.61754 -0.61753 v -0.308508 -0.309025 h -2.77864 z m 7.4104,1.8526 v 0.617533 0.617534 h 0.30851 0.30902 v -0.308508 -0.309026 h 0.30851 0.30903 v -0.308508 -0.309025 h -0.61754 z m 9.26248,-1.8526 v 0.309025 0.308508 h 0.92605 0.92655 v -0.308508 -0.309025 h -0.92655 z m 1.8526,0.617533 v 0.309025 0.308509 h 0.30851 0.30903 v -0.308509 -0.309025 h -0.30903 z m -20.37808,0 v 0.309025 0.308509 h -0.61753 -0.61754 v 0.617533 0.617533 h 0.30903 0.30851 v -0.308508 -0.309025 h 0.92656 0.92604 v -0.308508 -0.309025 h -0.30851 -0.30903 v -0.308509 -0.309025 h -0.3085 z m 16.67288,0 v 0.309025 0.308509 h 0.30903 0.30851 v -0.308509 -0.309025 h -0.30851 z m -20.9951,1.235067 v 0.309025 0.308508 h 0.30851 0.30903 v -0.308508 -0.309025 h -0.30903 z m 20.9951,0 v 1.235067 1.235067 h -0.61753 -0.61753 v 0.308508 0.309025 h -0.92604 -0.92656 v 0.308508 0.309025 h 0.30902 0.30851 v 0.617534 0.617533 h 0.30903 0.3085 v 0.308509 0.30902 h 0.61754 0.61753 v 0.61754 0.61753 h 1.23507 1.23506 v -0.61753 -0.61754 h 0.61754 0.61753 v -0.30902 -0.308509 h 0.30851 0.30902 v -1.8526 -1.8526 h -1.54409 -1.54357 v -0.617534 -0.617533 h -0.30851 z m 3.7052,1.235067 h 0.30851 0.30903 v -0.308508 -0.309026 h -0.30903 -0.30851 v 0.309026 z m -6.79286,1.8526 v -0.309025 -0.308508 h 0.30902 0.30851 v -0.309026 -0.308508 h -0.92604 -0.92656 v 0.308508 0.309026 h 0.30903 0.3085 v 0.308508 0.309025 h 0.30903 z m -12.96769,-0.617533 v 0.308508 0.309025 h 0.30903 0.30851 v -0.309025 -0.308508 h -0.30851 z m 0.61754,0.617533 v 0.308508 0.309025 h 0.92656 0.92604 v -0.309025 -0.308508 h -0.92604 z m -21.61264,0.617533 v 0.308509 0.309025 h 0.30851 0.30903 v -0.309025 -0.308509 h -0.30903 z m 18.52549,0.617534 v 1.235062 1.23507 h 0.30851 0.3085 v -1.23507 -1.235062 h -0.3085 z m 1.23455,0 v 0.617533 0.617529 h 0.30902 0.30851 v -0.617529 -0.617533 h -0.30851 z m 4.32273,0.617533 h 0.30903 0.3085 v 0.308509 0.30902 h -0.3085 -0.30903 v -0.30902 z m -24.08277,1.852599 v 0.30851 0.30902 h 0.30851 0.30903 v -0.30902 -0.30851 h -0.30903 z m 20.9951,0 v 0.30851 0.30902 h 0.30903 0.30851 v -0.30902 -0.30851 h -0.30851 z m 14.82029,4.32222 v 0.92656 0.92604 h 0.92656 0.92604 v -0.30851 -0.30903 h 0.61753 0.61753 v -0.61753 -0.61753 h -1.54357 z m -3.70469,4.32273 v 0.30851 0.30902 h 0.30851 0.30851 v -0.30902 -0.30851 h -0.30851 z m 8.02742,0 v 0.30851 0.30902 h 0.30851 0.30902 v -0.30902 -0.30851 h -0.30902 z m 0,2.47013 v 0.30851 0.30903 h 0.30851 0.30902 v -0.30903 -0.30851 h -0.30902 z m 6.79235,3.08767 v 0.30851 0.30903 h 0.30903 0.3085 v 0.3085 0.30851 h 0.30903 0.30851 v -0.61701 -0.61754 h -0.61754 z m -19.76003,3.08715 h 0.30851 0.30902 v 0.61754 0.61753 h 0.92604 0.92656 v -0.30851 -0.30902 h 0.30851 0.30902 v 0.30902 0.30851 h 0.61754 0.61753 v 0.61753 0.61754 h -0.30902 -0.30851 v 0.30902 0.30851 h -0.30903 -0.30851 v 0.30902 0.30851 h -0.30902 -0.30851 v 0.61754 0.61753 h -0.30902 -0.30851 v 0.30851 0.30902 h -0.30903 -0.30851 v -0.30902 -0.30851 h -0.30902 -0.30851 v 0.30851 0.30902 h -0.30902 -0.30851 v -0.61753 -0.61753 h -0.30903 -0.30851 v -0.92605 -0.92655 h 0.30851 0.30903 v -0.30851 -0.30903 h -0.30903 -0.30851 v -0.61753 -0.61753 h 0.30851 0.30903 v -0.30851 z" /><path
           id="path4-73"
           style="fill:#2f1901"
           d="m 194.35549,87.37368 v 0.308509 0.309025 h -0.30851 -0.30902 v 0.308508 0.309025 h 2.16162 2.16111 v -0.309025 -0.308508 h -0.3085 -0.30903 V 87.682189 87.37368 h -1.54358 z m 3.7052,1.235067 v 0.617534 0.617016 h 0.30851 0.30903 v 1.235067 1.235067 h 0.30851 0.30902 v 0.309025 0.308508 h 0.30851 0.30902 v 1.235067 1.235066 h 0.92605 0.92655 v -0.308508 -0.309025 h -0.61753 -0.61753 v -1.235067 -1.235066 h -0.30903 -0.30851 v -0.926042 -0.926558 h -0.30902 -0.30851 v -0.926042 -0.926042 h -0.61753 z m 3.7052,6.174817 h 1.54358 1.54357 v -0.308508 -0.309025 h 0.61754 0.61753 v -0.308509 -0.309025 h 0.30903 0.3085 v 0.309025 0.308509 h 0.61754 0.61753 v -0.617534 -0.617533 h 2.77916 2.77864 v 0.309025 0.308508 h 0.61753 0.61754 v 0.309025 0.308509 h 0.30851 0.30902 v 0.309025 0.308508 h 0.61753 0.61754 v -0.617533 -0.617534 h -0.61754 -0.61753 v -0.308508 -0.309025 h -0.30902 -0.30851 v -0.308508 -0.309025 h -3.7052 -3.7052 v 0.309025 0.308508 h -1.23507 -1.23507 v 0.309025 0.308508 h -1.23455 -1.23506 v 0.309025 0.308509 h -0.30903 -0.30851 v 0.309025 z m 14.82029,0 v 0.309025 0.308508 h -0.30903 -0.30851 v 0.309026 0.308508 h 1.23507 1.23455 v 0.308508 0.309025 h 0.92656 0.92604 v 0.617534 0.617533 h 0.61753 0.61754 v -0.309025 -0.308508 h 0.61753 0.61753 v -2.161109 -2.161625 h 0.30903 0.30851 v -0.926042 -0.926558 h 1.23506 1.23507 v -0.308508 -0.309025 h -1.54357 -1.5441 v 0.309025 0.308508 h -0.3085 -0.30903 v 2.161625 2.161108 h -0.30851 -0.30902 v 0.617534 0.617533 h -0.30851 -0.30903 v -0.309025 -0.308508 h -0.92604 -0.92656 v -0.308508 -0.309026 h -0.3085 -0.30903 v -0.308508 -0.309025 h -0.92604 z m 9.26248,-3.7052 v 0.309025 0.308508 h -0.30902 -0.30851 v 0.617534 0.617533 h 0.61753 0.61753 v 0.309025 0.308508 h 0.30851 0.30903 v 1.235067 1.235067 h -0.30903 -0.30851 v 1.8526 1.8526 h -0.30902 -0.30851 v 0.308509 0.30902 h -0.61753 -0.61754 v 0.61754 0.61753 h -1.54357 -1.54409 v 0.30851 0.30902 h -0.61754 -0.61753 v 0.30851 0.30903 h 3.08767 3.08766 v 0.30851 0.3085 h 0.30851 0.30903 v 0.30903 0.30851 h 0.30851 0.30902 v 0.30902 0.30851 h 0.30851 0.30902 v 0.30903 0.3085 h 0.30851 0.30903 v 0.30903 0.30851 h 0.92604 0.92656 v -0.30851 -0.30903 h 0.30851 0.30902 v -0.3085 -0.30903 h -1.23507 -1.23506 v -0.30851 -0.30902 h -0.30903 -0.30851 v -0.30851 -0.30903 h -0.30902 -0.30851 v -0.61701 -0.61754 h -0.92656 -0.92604 v -0.61753 -0.61753 h 0.30851 0.30902 v -0.30903 -0.30851 h 0.30851 0.30903 v -0.30902 -0.308509 h 0.30851 0.30902 v -3.396692 -3.396175 h -0.30902 -0.30851 v -0.308508 -0.309025 h -0.30903 -0.30851 v -0.617534 -0.617533 h -0.30902 z m 5.5578,14.202746 v 0.92656 0.92604 h 0.30851 0.30851 v -0.92604 -0.92656 h -0.30851 z m 0.61702,1.8526 v 2.77865 2.77915 h 0.30902 0.30851 v -0.92655 -0.92605 h 1.8526 1.8526 v -0.30902 -0.30851 h -0.92604 -0.92656 v -0.30902 -0.30851 h -0.92604 -0.92656 v -1.23507 -1.23507 h -0.30851 z m 4.32273,3.7052 v 0.92605 0.92655 h 0.30903 0.30851 v -0.92655 -0.92605 h -0.30851 z m 0.61754,1.8526 v 0.92605 0.92656 h 0.30902 0.30851 v 0.3085 0.30903 h 0.30902 0.30851 v -1.23507 -1.23507 h -0.61753 z m 1.23506,2.47014 v 1.23507 1.23455 h -0.30851 -0.30902 v 0.30902 0.30851 h -1.23507 -1.23506 v -0.30851 -0.30902 h -0.30851 -0.30903 v -0.30851 -0.30903 h -0.61753 -0.61754 v -0.30851 -0.3085 h -0.3085 -0.30903 v -0.30903 -0.30851 h -0.30851 -0.30902 v -0.61753 -0.61753 h -0.30851 -0.30851 v 0.3085 0.30903 h -0.30902 -0.30851 v 0.30851 0.30902 h -0.61754 -0.61753 v 0.61754 0.61701 h 0.61753 0.61754 v -0.30851 -0.3085 h 0.61753 0.61702 v 0.3085 0.30851 h 0.30902 0.30851 v 0.30903 0.30851 h 0.30903 0.3085 v 0.30902 0.30851 h 0.30903 0.30851 v 0.30902 0.30851 h 2.16162 2.16111 v -0.30851 -0.30902 h 0.30851 0.30903 v -1.54358 -1.54357 h -0.30903 z m -8.64495,1.85208 h -0.92656 -0.92604 v 0.30903 0.30851 h -1.54409 -1.54358 v 0.61753 0.61753 h 1.54358 1.54409 v -0.30851 -0.30902 h 0.61753 0.61754 v -0.30851 -0.30902 h 0.30851 0.30902 v -0.30851 z m -4.94027,1.8526 h -2.1611 -2.16163 v 0.61754 0.61753 h 2.16163 2.1611 v -0.61753 z m -4.32273,1.23507 h -0.61753 -0.61754 v 0.61753 0.61754 h 0.61754 0.61753 v -0.61754 z m -1.23507,1.23507 h -0.3085 -0.30903 v 0.30902 0.30851 h -0.30851 -0.30851 v 0.30902 0.30851 h -0.30902 -0.30851 v 0.61754 0.61753 h 0.30851 0.30902 v -0.30903 -0.3085 h 0.30851 0.30851 v -0.30851 -0.30903 h 0.30903 0.3085 V 121.954 Z m -1.85208,2.47013 h -0.61753 -0.61754 v 0.61753 0.61754 h 0.61754 0.61753 v -0.61754 z m -1.23507,1.23507 h -0.61753 -0.61753 v 0.3085 0.30903 h -1.54409 -1.54358 v -0.30903 -0.3085 h -0.30851 -0.30902 v 0.61753 0.61753 h 0.30902 0.30851 v 0.30851 0.30903 h 1.54358 1.54409 v -0.30903 -0.30851 h 0.30851 0.30902 v -0.30902 -0.30851 h 0.30851 0.30902 v -0.30903 z m -4.94026,0 v -3.7052 -3.7052 h -0.30851 -0.30903 v 0.61753 0.61753 h -0.3085 -0.30903 v 3.08767 3.08767 h 0.61753 z m 0,-7.4104 h 0.92604 0.92656 v -0.61754 -0.61701 h -0.30903 -0.30851 v -0.92656 -0.92604 h -0.61753 -0.61753 v -1.5441 -1.54357 h -0.61754 -0.61753 v 1.23506 1.23507 h 0.30903 0.3085 v 0.92604 0.92656 h -1.23506 -1.23507 v 0.61754 0.61701 h 1.54409 1.54358 v 0.30903 z m -3.08767,-1.85209 v -0.30902 -0.30851 h -0.30851 -0.30902 v -0.30903 -0.3085 h -4.32222 -4.32273 v -0.30903 -0.30851 h -0.61754 -0.61753 v 0.30851 0.30903 h 0.30903 0.3085 v 0.3085 0.30903 h 2.77865 2.77915 v 0.30851 0.30902 h 2.16111 z m -10.49755,-1.8526 v -0.61753 -0.61754 h -1.54358 -1.54409 v 0.61754 0.61753 h 1.54409 z m -3.08767,-1.23507 v -0.30902 -0.30851 h -0.30851 -0.30902 v -0.30902 -0.30851 h -0.92604 -0.92656 v -0.30903 -0.30851 h -0.61702 -0.61753 v 0.30851 0.30903 h 0.30851 0.30902 v 0.30851 0.30902 h 0.61702 0.61753 v 0.30851 0.30902 h 0.92656 z m -3.70468,-1.8526 v -0.61753 -0.61753 h -0.30903 -0.3085 v -0.30851 -0.30903 h -0.30903 -0.30851 v -0.3085 -0.30903 h -0.30902 -0.30851 v -0.61753 -0.61754 h -0.30903 -0.3085 v -0.3085 -0.30903 h -0.30903 -0.30851 v -0.61753 -0.61754 h -0.61753 -0.61753 v 0.61754 0.61753 h 0.3085 0.30903 v 0.61753 0.61754 h 0.30851 0.30902 v 0.61753 0.61753 h 0.61754 0.61753 v 0.30903 0.30851 h 0.30851 0.30902 v 0.30851 0.30902 h 0.30851 0.30903 v 0.30851 0.30902 h 0.3085 z m -4.32273,-5.5578 v -1.54357 -1.54358 h -0.30903 -0.30851 v 1.54358 1.54357 h 0.30851 z m -0.61754,-3.08715 v -1.8526 -1.852596 h -0.30902 -0.30851 v 0.308509 0.309025 h -0.30903 -0.3085 v 1.235062 1.23507 h 0.3085 0.30903 v 0.30851 0.30902 h 0.30851 z m 0,-3.705196 h 1.54358 1.54409 v 0.308509 0.309025 h 0.30851 0.30902 v -0.617534 -0.617533 h -0.61753 -0.61753 v -0.309025 -0.308508 h -1.23507 -1.23507 v 0.617533 z m 3.7052,0.617534 v 0.617533 0.617529 h 0.61754 0.61753 v -0.617529 -0.617533 h -0.61753 z m 1.23507,1.235062 v 0.92605 0.92655 h 0.30851 0.30902 v -0.30902 -0.30851 h 0.92604 0.92605 v -2.779157 -2.778642 h -0.30851 -0.30903 v 0.308508 0.309025 h -0.30851 -0.30902 v 1.8526 1.852596 h -0.61702 z m 2.46962,-4.322729 h 0.30902 0.30851 v -0.617534 -0.617533 h -0.30851 -0.30902 v 0.617533 z m 0.61753,-1.235067 h 0.61753 0.61754 v -0.308508 -0.309025 h 0.61753 0.61753 v -0.308509 -0.309025 h -0.30851 -0.30902 v -0.308508 -0.309025 h -0.30851 -0.30902 v -0.617533 -0.617534 h -0.30851 -0.30903 v -0.308508 -0.309025 h -0.30851 -0.30902 v -0.308508 -0.309025 h -0.30851 -0.30902 v -0.617534 -0.617016 h -0.30851 -0.30903 v 0.926041 0.926042 h 0.30903 0.30851 v 0.309025 0.308508 h 0.30902 0.30851 v 0.309025 0.308509 h 0.30902 0.30851 v 0.926558 0.926042 h -0.30851 -0.30902 v 0.309025 z m -0.61753,-5.557283 h 0.30902 0.30851 v -0.309026 -0.308508 h -0.30851 -0.30902 v 0.308508 z m -2.46962,12.967679 h -0.30903 -0.3085 v 0.30851 0.30903 h 0.3085 0.30903 v -0.30903 z m 16.67237,-4.940262 v 0.308508 0.309025 h 0.92656 0.92604 v -0.309025 -0.308508 h -0.92604 z m 1.8526,0.617533 v 0.308508 0.309025 h 0.30902 0.30851 v 0.308509 0.309025 h 0.61753 0.61754 v -0.617534 -0.617533 h -0.92604 z m 1.8526,1.235067 v 1.235062 1.23507 h 0.61753 0.61753 v -1.23507 -1.235062 h -0.61753 z m 1.23506,2.470132 v 0.61753 0.61754 h 0.30851 0.30903 v -0.61754 -0.61753 h -0.30903 z m -4.94026,-3.705199 h -0.92604 -0.92656 v 0.617533 0.617534 h 0.61753 0.61753 v -0.309025 -0.308509 h 0.30903 0.30851 v -0.309025 z m -1.8526,1.235067 h -0.30851 -0.30903 v 1.235062 1.23507 h 0.30903 0.30851 v -1.23507 z m 0,2.470132 v 0.61753 0.61754 h 0.61753 0.61753 v 1.54357 1.54358 h 0.61754 0.61753 v 0.61753 0.61753 h 0.30903 0.3085 v 0.92656 0.92604 h 0.30903 0.30851 v -1.23506 -1.23507 h -0.30851 -0.30903 v -0.61753 -0.61754 h -0.3085 -0.30903 v -0.92604 -0.92656 h -0.30851 -0.30902 v -0.61701 -0.61754 h -0.30851 -0.30903 v -0.30902 -0.30851 h -0.61753 z m 16.05535,3.70468 v 0.30903 0.30851 h 1.54409 1.54357 v -0.30851 -0.30903 h -1.54357 z m -1.23507,1.23507 v 0.30903 0.3085 h -0.30851 -0.30902 v 0.30903 0.30851 h -0.30851 -0.30903 v 0.30902 0.30851 h 1.23507 1.23507 v 0.30903 0.3085 h 0.30902 0.30851 v 0.30903 0.30851 h 0.61753 0.61754 v 0.61753 0.61753 h -0.30851 -0.30903 v 0.30851 0.30903 h -0.3085 -0.30903 v 0.61753 0.61753 h 0.30903 0.3085 v 0.30851 0.30903 h 0.30903 0.30851 v 0.30851 0.30902 h 1.23506 1.23507 v -0.61753 -0.61754 h 0.61753 0.61754 v -0.92655 -0.92605 h -0.61754 -0.61753 v -0.61753 -0.61753 h -0.61753 -0.61754 v -0.92604 -0.92656 h 1.23507 1.23507 v 0.30902 0.30851 h 0.30851 0.30902 v -0.92604 -0.92656 h -1.54409 -1.54358 v 0.30903 0.3085 h -0.61753 -0.61753 v 0.30903 0.30851 h -0.92604 -0.92656 v -0.61754 -0.61753 h -0.61754 z m -1.23507,1.8526 h -0.3085 -0.30903 v 0.61753 0.61754 h 0.30903 0.3085 v -0.61754 z m 10.49807,3.08767 v 0.30851 0.30902 h -0.30902 -0.30851 v 0.30851 0.30902 h -0.30903 -0.30851 v 0.30851 0.30903 h -0.30902 -0.30851 v 0.30851 0.30902 h 1.23507 1.23506 v -1.23507 -1.23506 h -0.30902 z m -11.73262,2.47013 v 0.61754 0.61753 h 0.30851 0.30851 v 0.30851 0.30902 h 1.23507 1.23506 v -0.30902 -0.30851 h 0.30903 0.30851 v -0.30903 -0.3085 h -1.23507 -1.23507 v -0.30903 -0.30851 h -0.61753 z" /></g></g></g></svg>
